G04 #@! TF.GenerationSoftware,KiCad,Pcbnew,(5.1.2)-2*
G04 #@! TF.CreationDate,2019-08-09T21:53:36-03:00*
G04 #@! TF.ProjectId,minicurso_IEEE,6d696e69-6375-4727-936f-5f494545452e,rev?*
G04 #@! TF.SameCoordinates,Original*
G04 #@! TF.FileFunction,Legend,Top*
G04 #@! TF.FilePolarity,Positive*
%FSLAX46Y46*%
G04 Gerber Fmt 4.6, Leading zero omitted, Abs format (unit mm)*
G04 Created by KiCad (PCBNEW (5.1.2)-2) date 2019-08-09 21:53:36*
%MOMM*%
%LPD*%
G04 APERTURE LIST*
%ADD10C,0.120000*%
%ADD11C,0.150000*%
G04 APERTURE END LIST*
D10*
X97610000Y-86670000D02*
X96660000Y-86670000D01*
X91870000Y-86670000D02*
X92820000Y-86670000D01*
X96660000Y-85750000D02*
X92820000Y-85750000D01*
X96660000Y-87590000D02*
X96660000Y-85750000D01*
X92820000Y-87590000D02*
X96660000Y-87590000D01*
X92820000Y-85750000D02*
X92820000Y-87590000D01*
X97610000Y-83520000D02*
X96660000Y-83520000D01*
X91870000Y-83520000D02*
X92820000Y-83520000D01*
X96660000Y-82600000D02*
X92820000Y-82600000D01*
X96660000Y-84440000D02*
X96660000Y-82600000D01*
X92820000Y-84440000D02*
X96660000Y-84440000D01*
X92820000Y-82600000D02*
X92820000Y-84440000D01*
X97610000Y-80370000D02*
X96660000Y-80370000D01*
X91870000Y-80370000D02*
X92820000Y-80370000D01*
X96660000Y-79450000D02*
X92820000Y-79450000D01*
X96660000Y-81290000D02*
X96660000Y-79450000D01*
X92820000Y-81290000D02*
X96660000Y-81290000D01*
X92820000Y-79450000D02*
X92820000Y-81290000D01*
X105118478Y-83888478D02*
G75*
G03X103280000Y-79450000I-1838478J1838478D01*
G01*
X101441522Y-83888478D02*
G75*
G02X103280000Y-79450000I1838478J1838478D01*
G01*
X101480000Y-83900000D02*
X105080000Y-83900000D01*
X104470000Y-87415000D02*
X104470000Y-87480000D01*
X104470000Y-85240000D02*
X104470000Y-85305000D01*
X101230000Y-87415000D02*
X101230000Y-87480000D01*
X101230000Y-85240000D02*
X101230000Y-85305000D01*
X101230000Y-87480000D02*
X104470000Y-87480000D01*
X101230000Y-85240000D02*
X104470000Y-85240000D01*
D11*
X94573333Y-85202380D02*
X94240000Y-84726190D01*
X94001904Y-85202380D02*
X94001904Y-84202380D01*
X94382857Y-84202380D01*
X94478095Y-84250000D01*
X94525714Y-84297619D01*
X94573333Y-84392857D01*
X94573333Y-84535714D01*
X94525714Y-84630952D01*
X94478095Y-84678571D01*
X94382857Y-84726190D01*
X94001904Y-84726190D01*
X94906666Y-84202380D02*
X95525714Y-84202380D01*
X95192380Y-84583333D01*
X95335238Y-84583333D01*
X95430476Y-84630952D01*
X95478095Y-84678571D01*
X95525714Y-84773809D01*
X95525714Y-85011904D01*
X95478095Y-85107142D01*
X95430476Y-85154761D01*
X95335238Y-85202380D01*
X95049523Y-85202380D01*
X94954285Y-85154761D01*
X94906666Y-85107142D01*
X94573333Y-82052380D02*
X94240000Y-81576190D01*
X94001904Y-82052380D02*
X94001904Y-81052380D01*
X94382857Y-81052380D01*
X94478095Y-81100000D01*
X94525714Y-81147619D01*
X94573333Y-81242857D01*
X94573333Y-81385714D01*
X94525714Y-81480952D01*
X94478095Y-81528571D01*
X94382857Y-81576190D01*
X94001904Y-81576190D01*
X94954285Y-81147619D02*
X95001904Y-81100000D01*
X95097142Y-81052380D01*
X95335238Y-81052380D01*
X95430476Y-81100000D01*
X95478095Y-81147619D01*
X95525714Y-81242857D01*
X95525714Y-81338095D01*
X95478095Y-81480952D01*
X94906666Y-82052380D01*
X95525714Y-82052380D01*
X94573333Y-78902380D02*
X94240000Y-78426190D01*
X94001904Y-78902380D02*
X94001904Y-77902380D01*
X94382857Y-77902380D01*
X94478095Y-77950000D01*
X94525714Y-77997619D01*
X94573333Y-78092857D01*
X94573333Y-78235714D01*
X94525714Y-78330952D01*
X94478095Y-78378571D01*
X94382857Y-78426190D01*
X94001904Y-78426190D01*
X95525714Y-78902380D02*
X94954285Y-78902380D01*
X95240000Y-78902380D02*
X95240000Y-77902380D01*
X95144761Y-78045238D01*
X95049523Y-78140476D01*
X94954285Y-78188095D01*
X103184761Y-79037619D02*
X103089523Y-78990000D01*
X102994285Y-78894761D01*
X102851428Y-78751904D01*
X102756190Y-78704285D01*
X102660952Y-78704285D01*
X102708571Y-78942380D02*
X102613333Y-78894761D01*
X102518095Y-78799523D01*
X102470476Y-78609047D01*
X102470476Y-78275714D01*
X102518095Y-78085238D01*
X102613333Y-77990000D01*
X102708571Y-77942380D01*
X102899047Y-77942380D01*
X102994285Y-77990000D01*
X103089523Y-78085238D01*
X103137142Y-78275714D01*
X103137142Y-78609047D01*
X103089523Y-78799523D01*
X102994285Y-78894761D01*
X102899047Y-78942380D01*
X102708571Y-78942380D01*
X104089523Y-78942380D02*
X103518095Y-78942380D01*
X103803809Y-78942380D02*
X103803809Y-77942380D01*
X103708571Y-78085238D01*
X103613333Y-78180476D01*
X103518095Y-78228095D01*
X102683333Y-84467142D02*
X102635714Y-84514761D01*
X102492857Y-84562380D01*
X102397619Y-84562380D01*
X102254761Y-84514761D01*
X102159523Y-84419523D01*
X102111904Y-84324285D01*
X102064285Y-84133809D01*
X102064285Y-83990952D01*
X102111904Y-83800476D01*
X102159523Y-83705238D01*
X102254761Y-83610000D01*
X102397619Y-83562380D01*
X102492857Y-83562380D01*
X102635714Y-83610000D01*
X102683333Y-83657619D01*
X103635714Y-84562380D02*
X103064285Y-84562380D01*
X103350000Y-84562380D02*
X103350000Y-83562380D01*
X103254761Y-83705238D01*
X103159523Y-83800476D01*
X103064285Y-83848095D01*
M02*
