G04 #@! TF.GenerationSoftware,KiCad,Pcbnew,(5.1.2)-2*
G04 #@! TF.CreationDate,2019-08-09T21:53:36-03:00*
G04 #@! TF.ProjectId,minicurso_IEEE,6d696e69-6375-4727-936f-5f494545452e,rev?*
G04 #@! TF.SameCoordinates,Original*
G04 #@! TF.FileFunction,Copper,L1,Top*
G04 #@! TF.FilePolarity,Positive*
%FSLAX46Y46*%
G04 Gerber Fmt 4.6, Leading zero omitted, Abs format (unit mm)*
G04 Created by KiCad (PCBNEW (5.1.2)-2) date 2019-08-09 21:53:36*
%MOMM*%
%LPD*%
G04 APERTURE LIST*
%ADD10O,1.400000X1.400000*%
%ADD11C,1.400000*%
%ADD12R,1.050000X1.500000*%
%ADD13O,1.050000X1.500000*%
%ADD14C,1.600000*%
%ADD15C,1.000000*%
G04 APERTURE END LIST*
D10*
X98550000Y-86670000D03*
D11*
X90930000Y-86670000D03*
D10*
X98550000Y-83520000D03*
D11*
X90930000Y-83520000D03*
D10*
X98550000Y-80370000D03*
D11*
X90930000Y-80370000D03*
D12*
X102010000Y-82050000D03*
D13*
X104550000Y-82050000D03*
X103280000Y-82050000D03*
D14*
X104100000Y-86360000D03*
X101600000Y-86360000D03*
D15*
X100800001Y-87159999D02*
X101600000Y-86360000D01*
X99889999Y-88070001D02*
X100800001Y-87159999D01*
X90257999Y-88070001D02*
X99889999Y-88070001D01*
X89529999Y-87342001D02*
X90257999Y-88070001D01*
X89529999Y-79697999D02*
X89529999Y-87342001D01*
X90487998Y-78740000D02*
X89529999Y-79697999D01*
X96920000Y-78740000D02*
X90487998Y-78740000D01*
X98550000Y-80370000D02*
X96920000Y-78740000D01*
X104480010Y-83869990D02*
X104480010Y-82550000D01*
X103490001Y-84859999D02*
X104480010Y-83869990D01*
X98550000Y-86670000D02*
X100360001Y-84859999D01*
X100360001Y-84859999D02*
X103490001Y-84859999D01*
X95400000Y-80370000D02*
X98550000Y-83520000D01*
X90930000Y-80370000D02*
X95400000Y-80370000D01*
X103280000Y-83315002D02*
X103280000Y-82050000D01*
X103075002Y-83520000D02*
X103280000Y-83315002D01*
X98550000Y-83520000D02*
X103075002Y-83520000D01*
X90930000Y-83520000D02*
X90930000Y-86670000D01*
M02*
