G04 #@! TF.GenerationSoftware,KiCad,Pcbnew,(5.1.2)-2*
G04 #@! TF.CreationDate,2019-08-09T21:53:36-03:00*
G04 #@! TF.ProjectId,minicurso_IEEE,6d696e69-6375-4727-936f-5f494545452e,rev?*
G04 #@! TF.SameCoordinates,Original*
G04 #@! TF.FileFunction,Soldermask,Bot*
G04 #@! TF.FilePolarity,Negative*
%FSLAX46Y46*%
G04 Gerber Fmt 4.6, Leading zero omitted, Abs format (unit mm)*
G04 Created by KiCad (PCBNEW (5.1.2)-2) date 2019-08-09 21:53:36*
%MOMM*%
%LPD*%
G04 APERTURE LIST*
%ADD10C,0.100000*%
G04 APERTURE END LIST*
D10*
G36*
X91149059Y-85947860D02*
G01*
X91209294Y-85972810D01*
X91285732Y-86004472D01*
X91408735Y-86086660D01*
X91513340Y-86191265D01*
X91595528Y-86314268D01*
X91652140Y-86450941D01*
X91681000Y-86596033D01*
X91681000Y-86743967D01*
X91652140Y-86889059D01*
X91595528Y-87025732D01*
X91513340Y-87148735D01*
X91408735Y-87253340D01*
X91285732Y-87335528D01*
X91285731Y-87335529D01*
X91285730Y-87335529D01*
X91149059Y-87392140D01*
X91003968Y-87421000D01*
X90856032Y-87421000D01*
X90710941Y-87392140D01*
X90574270Y-87335529D01*
X90574269Y-87335529D01*
X90574268Y-87335528D01*
X90451265Y-87253340D01*
X90346660Y-87148735D01*
X90264472Y-87025732D01*
X90207860Y-86889059D01*
X90179000Y-86743967D01*
X90179000Y-86596033D01*
X90207860Y-86450941D01*
X90264472Y-86314268D01*
X90346660Y-86191265D01*
X90451265Y-86086660D01*
X90574268Y-86004472D01*
X90650707Y-85972810D01*
X90710941Y-85947860D01*
X90856032Y-85919000D01*
X91003968Y-85919000D01*
X91149059Y-85947860D01*
X91149059Y-85947860D01*
G37*
G36*
X98623665Y-85922622D02*
G01*
X98697222Y-85929867D01*
X98838786Y-85972810D01*
X98969252Y-86042546D01*
X98999040Y-86066992D01*
X99083607Y-86136393D01*
X99153008Y-86220960D01*
X99177454Y-86250748D01*
X99247190Y-86381214D01*
X99290133Y-86522778D01*
X99304633Y-86670000D01*
X99290133Y-86817222D01*
X99247190Y-86958786D01*
X99177454Y-87089252D01*
X99157023Y-87114147D01*
X99083607Y-87203607D01*
X99023004Y-87253341D01*
X98969252Y-87297454D01*
X98838786Y-87367190D01*
X98697222Y-87410133D01*
X98623665Y-87417378D01*
X98586888Y-87421000D01*
X98513112Y-87421000D01*
X98476335Y-87417378D01*
X98402778Y-87410133D01*
X98261214Y-87367190D01*
X98130748Y-87297454D01*
X98076996Y-87253341D01*
X98016393Y-87203607D01*
X97942977Y-87114147D01*
X97922546Y-87089252D01*
X97852810Y-86958786D01*
X97809867Y-86817222D01*
X97795367Y-86670000D01*
X97809867Y-86522778D01*
X97852810Y-86381214D01*
X97922546Y-86250748D01*
X97946992Y-86220960D01*
X98016393Y-86136393D01*
X98100960Y-86066992D01*
X98130748Y-86042546D01*
X98261214Y-85972810D01*
X98402778Y-85929867D01*
X98476335Y-85922622D01*
X98513112Y-85919000D01*
X98586888Y-85919000D01*
X98623665Y-85922622D01*
X98623665Y-85922622D01*
G37*
G36*
X101848228Y-85541703D02*
G01*
X102003100Y-85605853D01*
X102142481Y-85698985D01*
X102261015Y-85817519D01*
X102354147Y-85956900D01*
X102418297Y-86111772D01*
X102451000Y-86276184D01*
X102451000Y-86443816D01*
X102418297Y-86608228D01*
X102354147Y-86763100D01*
X102261015Y-86902481D01*
X102142481Y-87021015D01*
X102003100Y-87114147D01*
X101848228Y-87178297D01*
X101683816Y-87211000D01*
X101516184Y-87211000D01*
X101351772Y-87178297D01*
X101196900Y-87114147D01*
X101057519Y-87021015D01*
X100938985Y-86902481D01*
X100845853Y-86763100D01*
X100781703Y-86608228D01*
X100749000Y-86443816D01*
X100749000Y-86276184D01*
X100781703Y-86111772D01*
X100845853Y-85956900D01*
X100938985Y-85817519D01*
X101057519Y-85698985D01*
X101196900Y-85605853D01*
X101351772Y-85541703D01*
X101516184Y-85509000D01*
X101683816Y-85509000D01*
X101848228Y-85541703D01*
X101848228Y-85541703D01*
G37*
G36*
X104348228Y-85541703D02*
G01*
X104503100Y-85605853D01*
X104642481Y-85698985D01*
X104761015Y-85817519D01*
X104854147Y-85956900D01*
X104918297Y-86111772D01*
X104951000Y-86276184D01*
X104951000Y-86443816D01*
X104918297Y-86608228D01*
X104854147Y-86763100D01*
X104761015Y-86902481D01*
X104642481Y-87021015D01*
X104503100Y-87114147D01*
X104348228Y-87178297D01*
X104183816Y-87211000D01*
X104016184Y-87211000D01*
X103851772Y-87178297D01*
X103696900Y-87114147D01*
X103557519Y-87021015D01*
X103438985Y-86902481D01*
X103345853Y-86763100D01*
X103281703Y-86608228D01*
X103249000Y-86443816D01*
X103249000Y-86276184D01*
X103281703Y-86111772D01*
X103345853Y-85956900D01*
X103438985Y-85817519D01*
X103557519Y-85698985D01*
X103696900Y-85605853D01*
X103851772Y-85541703D01*
X104016184Y-85509000D01*
X104183816Y-85509000D01*
X104348228Y-85541703D01*
X104348228Y-85541703D01*
G37*
G36*
X98623665Y-82772622D02*
G01*
X98697222Y-82779867D01*
X98838786Y-82822810D01*
X98969252Y-82892546D01*
X98999040Y-82916992D01*
X99083607Y-82986393D01*
X99153008Y-83070960D01*
X99177454Y-83100748D01*
X99247190Y-83231214D01*
X99290133Y-83372778D01*
X99304633Y-83520000D01*
X99290133Y-83667222D01*
X99247190Y-83808786D01*
X99177454Y-83939252D01*
X99153008Y-83969040D01*
X99083607Y-84053607D01*
X99023004Y-84103341D01*
X98969252Y-84147454D01*
X98838786Y-84217190D01*
X98697222Y-84260133D01*
X98623665Y-84267378D01*
X98586888Y-84271000D01*
X98513112Y-84271000D01*
X98476335Y-84267378D01*
X98402778Y-84260133D01*
X98261214Y-84217190D01*
X98130748Y-84147454D01*
X98076996Y-84103341D01*
X98016393Y-84053607D01*
X97946992Y-83969040D01*
X97922546Y-83939252D01*
X97852810Y-83808786D01*
X97809867Y-83667222D01*
X97795367Y-83520000D01*
X97809867Y-83372778D01*
X97852810Y-83231214D01*
X97922546Y-83100748D01*
X97946992Y-83070960D01*
X98016393Y-82986393D01*
X98100960Y-82916992D01*
X98130748Y-82892546D01*
X98261214Y-82822810D01*
X98402778Y-82779867D01*
X98476335Y-82772622D01*
X98513112Y-82769000D01*
X98586888Y-82769000D01*
X98623665Y-82772622D01*
X98623665Y-82772622D01*
G37*
G36*
X91149059Y-82797860D02*
G01*
X91284079Y-82853787D01*
X91285732Y-82854472D01*
X91408735Y-82936660D01*
X91513340Y-83041265D01*
X91595528Y-83164268D01*
X91652140Y-83300941D01*
X91681000Y-83446033D01*
X91681000Y-83593967D01*
X91652140Y-83739059D01*
X91595528Y-83875732D01*
X91513340Y-83998735D01*
X91408735Y-84103340D01*
X91285732Y-84185528D01*
X91285731Y-84185529D01*
X91285730Y-84185529D01*
X91149059Y-84242140D01*
X91003968Y-84271000D01*
X90856032Y-84271000D01*
X90710941Y-84242140D01*
X90574270Y-84185529D01*
X90574269Y-84185529D01*
X90574268Y-84185528D01*
X90451265Y-84103340D01*
X90346660Y-83998735D01*
X90264472Y-83875732D01*
X90207860Y-83739059D01*
X90179000Y-83593967D01*
X90179000Y-83446033D01*
X90207860Y-83300941D01*
X90264472Y-83164268D01*
X90346660Y-83041265D01*
X90451265Y-82936660D01*
X90574268Y-82854472D01*
X90575922Y-82853787D01*
X90710941Y-82797860D01*
X90856032Y-82769000D01*
X91003968Y-82769000D01*
X91149059Y-82797860D01*
X91149059Y-82797860D01*
G37*
G36*
X104662915Y-81257334D02*
G01*
X104771491Y-81290271D01*
X104771494Y-81290272D01*
X104807600Y-81309571D01*
X104871556Y-81343756D01*
X104959264Y-81415736D01*
X105031244Y-81503443D01*
X105065429Y-81567399D01*
X105084728Y-81603505D01*
X105084729Y-81603508D01*
X105117666Y-81712084D01*
X105126000Y-81796702D01*
X105126000Y-82303297D01*
X105117666Y-82387916D01*
X105085252Y-82494767D01*
X105084728Y-82496495D01*
X105074761Y-82515141D01*
X105031244Y-82596557D01*
X104959264Y-82684264D01*
X104871557Y-82756244D01*
X104807601Y-82790429D01*
X104771495Y-82809728D01*
X104771492Y-82809729D01*
X104662916Y-82842666D01*
X104550000Y-82853787D01*
X104437085Y-82842666D01*
X104328509Y-82809729D01*
X104328506Y-82809728D01*
X104292400Y-82790429D01*
X104228444Y-82756244D01*
X104140737Y-82684264D01*
X104068757Y-82596557D01*
X104025239Y-82515141D01*
X104011625Y-82494766D01*
X103994298Y-82477439D01*
X103973924Y-82463826D01*
X103951285Y-82454448D01*
X103927252Y-82449668D01*
X103902748Y-82449668D01*
X103878715Y-82454448D01*
X103856076Y-82463826D01*
X103835701Y-82477440D01*
X103818374Y-82494767D01*
X103804761Y-82515141D01*
X103761244Y-82596557D01*
X103689264Y-82684264D01*
X103601557Y-82756244D01*
X103537601Y-82790429D01*
X103501495Y-82809728D01*
X103501492Y-82809729D01*
X103392916Y-82842666D01*
X103280000Y-82853787D01*
X103167085Y-82842666D01*
X103058509Y-82809729D01*
X103058506Y-82809728D01*
X103022400Y-82790429D01*
X102958444Y-82756244D01*
X102870737Y-82684264D01*
X102807622Y-82607359D01*
X102790297Y-82590034D01*
X102769923Y-82576420D01*
X102747284Y-82567043D01*
X102723250Y-82562263D01*
X102698746Y-82562263D01*
X102674713Y-82567044D01*
X102652074Y-82576421D01*
X102631700Y-82590035D01*
X102614373Y-82607362D01*
X102600759Y-82627736D01*
X102591382Y-82650375D01*
X102586000Y-82686660D01*
X102586000Y-82851000D01*
X101434000Y-82851000D01*
X101434000Y-81249000D01*
X102586000Y-81249000D01*
X102586000Y-81413341D01*
X102588402Y-81437727D01*
X102595515Y-81461176D01*
X102607066Y-81482787D01*
X102622611Y-81501729D01*
X102641553Y-81517274D01*
X102663164Y-81528825D01*
X102686613Y-81535938D01*
X102710999Y-81538340D01*
X102735385Y-81535938D01*
X102758834Y-81528825D01*
X102780445Y-81517274D01*
X102799387Y-81501729D01*
X102807608Y-81492657D01*
X102870736Y-81415736D01*
X102958443Y-81343756D01*
X103022399Y-81309571D01*
X103058505Y-81290272D01*
X103058508Y-81290271D01*
X103167084Y-81257334D01*
X103280000Y-81246213D01*
X103392915Y-81257334D01*
X103501491Y-81290271D01*
X103501494Y-81290272D01*
X103537600Y-81309571D01*
X103601556Y-81343756D01*
X103689264Y-81415736D01*
X103761244Y-81503443D01*
X103804761Y-81584859D01*
X103818375Y-81605234D01*
X103835702Y-81622561D01*
X103856076Y-81636174D01*
X103878715Y-81645552D01*
X103902748Y-81650332D01*
X103927252Y-81650332D01*
X103951285Y-81645552D01*
X103973924Y-81636174D01*
X103994299Y-81622560D01*
X104011626Y-81605233D01*
X104025239Y-81584860D01*
X104068756Y-81503444D01*
X104140736Y-81415736D01*
X104228443Y-81343756D01*
X104292399Y-81309571D01*
X104328505Y-81290272D01*
X104328508Y-81290271D01*
X104437084Y-81257334D01*
X104550000Y-81246213D01*
X104662915Y-81257334D01*
X104662915Y-81257334D01*
G37*
G36*
X91149059Y-79647860D02*
G01*
X91209294Y-79672810D01*
X91285732Y-79704472D01*
X91408735Y-79786660D01*
X91513340Y-79891265D01*
X91595528Y-80014268D01*
X91652140Y-80150941D01*
X91681000Y-80296033D01*
X91681000Y-80443967D01*
X91652140Y-80589059D01*
X91595528Y-80725732D01*
X91513340Y-80848735D01*
X91408735Y-80953340D01*
X91285732Y-81035528D01*
X91285731Y-81035529D01*
X91285730Y-81035529D01*
X91149059Y-81092140D01*
X91003968Y-81121000D01*
X90856032Y-81121000D01*
X90710941Y-81092140D01*
X90574270Y-81035529D01*
X90574269Y-81035529D01*
X90574268Y-81035528D01*
X90451265Y-80953340D01*
X90346660Y-80848735D01*
X90264472Y-80725732D01*
X90207860Y-80589059D01*
X90179000Y-80443967D01*
X90179000Y-80296033D01*
X90207860Y-80150941D01*
X90264472Y-80014268D01*
X90346660Y-79891265D01*
X90451265Y-79786660D01*
X90574268Y-79704472D01*
X90650707Y-79672810D01*
X90710941Y-79647860D01*
X90856032Y-79619000D01*
X91003968Y-79619000D01*
X91149059Y-79647860D01*
X91149059Y-79647860D01*
G37*
G36*
X98623665Y-79622622D02*
G01*
X98697222Y-79629867D01*
X98838786Y-79672810D01*
X98969252Y-79742546D01*
X98999040Y-79766992D01*
X99083607Y-79836393D01*
X99153008Y-79920960D01*
X99177454Y-79950748D01*
X99247190Y-80081214D01*
X99290133Y-80222778D01*
X99304633Y-80370000D01*
X99290133Y-80517222D01*
X99247190Y-80658786D01*
X99177454Y-80789252D01*
X99153008Y-80819040D01*
X99083607Y-80903607D01*
X99023004Y-80953341D01*
X98969252Y-80997454D01*
X98838786Y-81067190D01*
X98697222Y-81110133D01*
X98623665Y-81117378D01*
X98586888Y-81121000D01*
X98513112Y-81121000D01*
X98476335Y-81117378D01*
X98402778Y-81110133D01*
X98261214Y-81067190D01*
X98130748Y-80997454D01*
X98076996Y-80953341D01*
X98016393Y-80903607D01*
X97946992Y-80819040D01*
X97922546Y-80789252D01*
X97852810Y-80658786D01*
X97809867Y-80517222D01*
X97795367Y-80370000D01*
X97809867Y-80222778D01*
X97852810Y-80081214D01*
X97922546Y-79950748D01*
X97946992Y-79920960D01*
X98016393Y-79836393D01*
X98100960Y-79766992D01*
X98130748Y-79742546D01*
X98261214Y-79672810D01*
X98402778Y-79629867D01*
X98476335Y-79622622D01*
X98513112Y-79619000D01*
X98586888Y-79619000D01*
X98623665Y-79622622D01*
X98623665Y-79622622D01*
G37*
M02*
